inDegrees=yes
name=ik_Shooting_orientations_bogen
DataType=double
version=3
OpenSimVersion=4.3-2021-08-27-4bc7ad9
endheader
time	pelvis_tilt	pelvis_list	pelvis_rotation	pelvis_tx	pelvis_ty	pelvis_tz	hip_flexion_r	hip_adduction_r	hip_rotation_r	knee_angle_r	knee_angle_r_beta	ankle_angle_r	subtalar_angle_r	mtp_angle_r	hip_flexion_l	hip_adduction_l	hip_rotation_l	knee_angle_l	knee_angle_l_beta	ankle_angle_l	subtalar_angle_l	mtp_angle_l	lumbar_extension	lumbar_bending	lumbar_rotation	arm_flex_r	arm_add_r	arm_rot_r	elbow_flex_r	pro_sup_r	wrist_flex_r	wrist_dev_r	arm_flex_l	arm_add_l	arm_rot_l	elbow_flex_l	pro_sup_l	wrist_flex_l	wrist_dev_l
11.45	-3.08905789714776	-0.8497908901227964	146.6960867615712	0	0.9399999999999999	0	44.95105604680123	-9.99997010235426	0	59.94644066944191	1.046262764533195	-4.99997759730598	0	0	44.95105604680123	-9.99997010235426	0	59.94644066944191	1.046262764533195	-4.99997759730598	0	0	-1.562728333440099	-1.28049344454109	-1.308433978275181	0	-14.40932626202351	0	75.03228256027151	45.00104438285997	0	0	-26.90686495501862	-50.33931085422355	3.915248207435138	46.82950699884921	45.00104438285997	0	0
11.46	-3.088403597947193	-0.830051019608375	146.6827497186793	0	0.9399999999999999	0	44.95110243928178	-9.999970201699238	0	59.94648047765843	1.046263459317643	-4.999977693849459	0	0	44.95110243928178	-9.999970201699238	0	59.94648047765843	1.046263459317643	-4.999977693849459	0	0	-1.573379392929656	-1.259249166170039	-1.266969320300673	0	-14.40961219099988	0	75.03225212751988	45.00104163889546	0	0	-26.62250899707998	-50.14474221671212	4.472772398889306	46.72980743658466	45.00104163889546	0	0
11.47	-3.093260617926388	-0.8236820573122635	146.6675616823451	0	0.9399999999999999	0	44.95115240508478	-9.99997030843917	0	59.94652336009676	1.046264207757383	-4.999977797472082	0	0	44.95115240508478	-9.99997030843917	0	59.94652336009676	1.046264207757383	-4.999977797472082	0	0	-1.577245699619069	-1.258545594216688	-1.236112672928111	0	-14.40992028385021	0	75.03221935072368	45.0010386885889	0	0	-26.30163762506824	-49.9028870653288	4.933792123260536	46.60278865231585	45.0010386885889	0	0
11.48	-3.097098581277974	-0.8398716218444334	146.6650842392787	0	0.9399999999999999	0	44.95116056705824	-9.999970325757188	0	59.94653039525106	1.046264330543989	-4.999977814256003	0	0	44.95116056705824	-9.999970325757188	0	59.94653039525106	1.046264330543989	-4.999977814256003	0	0	-1.551679270984004	-1.289619871108264	-1.290194511618201	0	-14.40997077678249	0	75.03221399659483	45.00103820925245	0	0	-26.22475248451628	-49.63947375501954	5.076498131843437	46.56869036455165	45.00103820925245	0	0
11.49	-3.081166734895229	-0.8160249990609942	146.6765290332685	0	0.9399999999999999	0	44.95118918295357	-9.999970386687222	0	59.94655497792894	1.046264759592657	-4.999977873336317	0	0	44.95118918295357	-9.999970386687222	0	59.94655497792894	1.046264759592657	-4.999977873336317	0	0	-1.549196773333445	-1.225444201991851	-1.252143043426734	0	-14.41014740075876	0	75.03219522500858	45.00103652369535	0	0	-25.9886763207035	-49.39789280352905	5.577212165903028	46.5334570119682	45.00103652369535	0	0
11.5	-3.101205203737897	-0.81185490996916	146.6765313798625	0	0.9399999999999999	0	44.95121855585111	-9.999970449158496	0	59.94658020675444	1.046265199918728	-4.999977933876662	0	0	44.95121855585111	-9.999970449158496	0	59.94658020675444	1.046265199918728	-4.999977933876662	0	0	-1.573023504606215	-1.231897677975141	-1.249510271691272	0	-14.41032871173513	0	75.03217595684052	45.00103479485556	0	0	-25.76384933000738	-49.19428250003071	6.048012829666599	46.46427292438032	45.00103479485556	0	0
11.51	-3.10558008263629	-0.8012840955764119	146.6688261622405	0	0.9399999999999999	0	44.9512556407073	-9.999970527909829	0	59.9466120585478	1.046265755837395	-4.999978010139301	0	0	44.9512556407073	-9.999970527909829	0	59.9466120585478	1.046265755837395	-4.999978010139301	0	0	-1.586424299282419	-1.232814135908703	-1.221830419315734	0	-14.41055767568077	0	75.03215162974642	45.00103261443125	0	0	-25.49096321329813	-49.00255703499302	6.460577636610186	46.3147440387539	45.00103261443125	0	0
11.52	-3.109405263486261	-0.8073796656610996	146.6517227270832	0	0.9399999999999999	0	44.95126355068317	-9.999970544612522	0	59.94661887757837	1.04626587485193	-4.99997802629218	0	0	44.95126355068317	-9.999970544612522	0	59.94661887757837	1.04626587485193	-4.99997802629218	0	0	-1.5786573309859	-1.266800390424728	-1.239463162737933	0	-14.41060664947678	0	75.03214644092405	45.00103215145335	0	0	-25.51046870988938	-48.78384528280513	6.693396719084119	46.3425379690217	45.00103215145335	0	0
11.53	-3.092767310550409	-0.795465986794651	146.6297714722387	0	0.9399999999999999	0	44.95130121550994	-9.99997062439887	0	59.94665123797668	1.046266439647428	-4.999978103478697	0	0	44.95130121550994	-9.99997062439887	0	59.94665123797668	1.046266439647428	-4.999978103478697	0	0	-1.603536396658047	-1.22339516624693	-1.169825257765111	0	-14.41083931948084	0	75.03212173337802	45.0010299408178	0	0	-25.1429390103578	-48.56069260777587	7.189044382905061	46.19368832212238	45.0010299408178	0	0
11.54	-3.108192119164292	-0.797420939723565	146.6297501100808	0	0.9399999999999999	0	44.95130645888447	-9.999970635414131	0	59.94665576928575	1.046266518733691	-4.999978114115047	0	0	44.95130645888447	-9.999970635414131	0	59.94665576928575	1.046266518733691	-4.999978114115047	0	0	-1.599847087833069	-1.266758503866098	-1.190619083298518	0	-14.41087185021303	0	75.03211829380498	45.00102963512929	0	0	-25.21068003760893	-48.32446035207434	7.406713044543796	46.2454690879825	45.00102963512929	0	0
11.55	-3.07568364457439	-0.7724231893567973	146.6250039962783	0	0.9399999999999999	0	44.95133428223903	-9.999970694212941	0	59.94667968550773	1.046266936150509	-4.99997817094499	0	0	44.95133428223903	-9.999970694212941	0	59.94667968550773	1.046266936150509	-4.99997817094499	0	0	-1.605776743323931	-1.196393496170684	-1.156841711449503	0	-14.41104383009268	0	75.03210004211299	45.00102800492797	0	0	-25.02604533063944	-48.04702633878746	7.921507041819279	46.22978455604313	45.00102800492797	0	0
11.56	-3.113470891635588	-0.7636290181006239	146.6235249956729	0	0.9399999999999999	0	44.95134060432053	-9.999970707494898	0	59.94668514225025	1.046267031388632	-4.999978183765084	0	0	44.95134060432053	-9.999970707494898	0	59.94668514225025	1.046267031388632	-4.999978183765084	0	0	-1.627297918712022	-1.255079107496408	-1.195821507573979	0	-14.41108302739396	0	75.03209589492481	45.00102763626558	0	0	-25.07067237507262	-47.83143002359076	8.214336665350666	46.26158045174695	45.00102763626558	0	0
11.57	-3.123027895664165	-0.7367928750809483	146.613832122291	0	0.9399999999999999	0	44.9513714760847	-9.999970772630201	0	59.94671167964049	1.046267494553467	-4.999978246673568	0	0	44.9513714760847	-9.999970772630201	0	59.94671167964049	1.046267494553467	-4.999978246673568	0	0	-1.669221063365567	-1.197527166125943	-1.144586766530297	0	-14.41127389881323	0	75.03207564352303	45.00102582949444	0	0	-24.76966599523141	-47.51950918400154	8.738655041632258	46.18225541355478	45.00102582949444	0	0
11.58	-3.12686114391435	-0.713898933730175	146.62901520878	0	0.9399999999999999	0	44.95139843746877	-9.999970829426754	0	59.94673485995479	1.046267899126273	-4.999978301492826	0	0	44.95139843746877	-9.999970829426754	0	59.94673485995479	1.046267899126273	-4.999978301492826	0	0	-1.685567533566516	-1.180859230643763	-1.157211855628832	0	-14.41144064854768	0	75.03205795727028	45.00102425332452	0	0	-24.64190059539187	-47.22556339723226	9.107310112708115	46.17268140641075	45.00102425332452	0	0
